<svg width="16" height="16" viewBox="0 0 16 16" fill="none" xmlns="http://www.w3.org/2000/svg">
<path d="M6.66666 12C7.85 11.9999 8.99925 11.6037 9.93133 10.8747L12.862 13.8053L13.8047 12.8627L10.874 9.932C11.6034 8.99983 11.9998 7.85031 12 6.66667C12 3.726 9.60733 1.33334 6.66666 1.33334C3.72599 1.33334 1.33333 3.726 1.33333 6.66667C1.33333 9.60734 3.72599 12 6.66666 12ZM6.66666 2.66667C8.87266 2.66667 10.6667 4.46067 10.6667 6.66667C10.6667 8.87267 8.87266 10.6667 6.66666 10.6667C4.46066 10.6667 2.66666 8.87267 2.66666 6.66667C2.66666 4.46067 4.46066 2.66667 6.66666 2.66667Z" fill="#969797"/>
</svg>
